<?xml version="1.0" standalone="no"?>
<!DOCTYPE svg PUBLIC "-//W3C//DTD SVG 20010904//EN"
 "http://www.w3.org/TR/2001/REC-SVG-20010904/DTD/svg10.dtd">
<svg version="1.0" xmlns="http://www.w3.org/2000/svg"
 width="612.000000pt" height="612.000000pt" viewBox="0 0 612.000000 612.000000"
 preserveAspectRatio="xMidYMid meet">
<metadata>
Created by potrace 1.14, written by Peter Selinger 2001-2017
</metadata>
<g transform="translate(0.000000,612.000000) scale(0.100000,-0.100000)"
fill="#000000" stroke="none">
<path d="M3000 4836 c0 -2 23 -18 50 -35 55 -34 136 -105 150 -131 8 -15 2
-15 -63 -3 -40 7 -135 12 -212 12 -378 1 -786 -119 -1103 -325 -88 -57 -272
-227 -272 -251 0 -10 5 -11 18 -4 40 21 187 43 317 48 l140 4 -103 -55 c-158
-84 -297 -207 -377 -331 -45 -71 -93 -182 -123 -285 -34 -118 -42 -324 -17
-436 18 -81 62 -204 74 -204 3 0 7 50 9 112 3 130 21 228 53 289 l23 44 7 -92
c9 -118 46 -231 108 -325 116 -178 263 -298 586 -482 147 -84 307 -187 301
-193 -3 -3 -20 0 -38 6 -18 6 -130 33 -248 60 -325 74 -471 134 -592 241 -101
89 -24 -53 84 -156 136 -129 319 -236 613 -359 423 -177 629 -331 753 -566 22
-41 48 -98 57 -128 21 -64 26 -59 57 56 28 104 30 324 5 428 -84 339 -306 615
-712 885 -368 245 -534 483 -535 765 0 262 207 515 543 660 37 16 67 34 67 40
-1 31 -149 159 -217 186 l-28 12 60 28 c76 35 239 75 375 90 132 15 416 7 530
-15 222 -43 427 -139 588 -274 29 -24 55 -43 57 -40 6 6 -41 115 -77 176 -18
31 -87 111 -153 177 -156 157 -278 238 -465 308 -117 43 -290 81 -290 63z"/>
<path d="M3110 4176 c-30 -7 -70 -20 -89 -28 l-34 -16 43 -31 c87 -63 143 -83
273 -98 67 -8 178 -27 246 -44 68 -16 130 -29 138 -27 7 2 -24 28 -69 58 -71
47 -88 64 -115 114 -18 36 -41 63 -55 69 -41 15 -278 18 -338 3z"/>
<path d="M2580 3883 c-310 -216 -389 -496 -211 -750 61 -86 116 -136 300 -271
280 -204 390 -298 498 -423 153 -179 244 -353 290 -551 47 -204 34 -472 -32
-701 -13 -45 -22 -83 -20 -85 2 -3 35 19 72 49 259 202 470 461 583 712 19 42
38 77 41 77 15 0 33 -142 34 -251 0 -115 0 -116 21 -103 25 17 114 118 175
199 167 223 252 503 235 780 -3 61 -12 135 -20 165 -15 62 -13 65 -41 -90 -18
-106 -64 -257 -103 -340 -30 -63 -91 -160 -102 -160 -4 0 -10 21 -14 46 -8 64
-61 214 -107 307 -43 87 -101 179 -108 172 -2 -3 -15 -35 -28 -72 -26 -76 -71
-150 -82 -137 -4 5 -13 29 -20 54 -27 93 -107 222 -203 326 l-40 43 22 36 c37
59 53 62 122 20 110 -68 149 -60 338 73 63 44 150 99 192 122 l77 41 21 -21
c27 -27 59 -97 61 -130 1 -21 4 -18 22 20 17 35 22 63 21 125 0 71 -4 89 -35
156 -64 135 -71 209 -28 307 10 24 21 58 25 77 l6 34 -36 -11 c-27 -9 -59 -8
-133 3 -117 17 -267 17 -306 1 l-28 -12 18 -31 c20 -35 52 -54 127 -76 69 -21
136 -52 164 -76 18 -17 22 -31 22 -76 0 -31 -5 -73 -10 -93 -23 -80 -130 -184
-264 -255 -61 -32 -80 -37 -131 -36 -168 2 -437 127 -514 239 -43 62 -17 157
73 268 26 32 46 59 44 61 -5 5 -279 -51 -368 -76 -91 -25 -200 -95 -317 -204
l-83 -77 -40 32 c-54 43 -95 97 -130 173 -60 127 -62 251 -6 374 15 31 25 57
24 59 -2 1 -32 -18 -68 -43z"/>
</g>
</svg>
